<?xml version="1.0" encoding="UTF-8" standalone="no"?>
<!DOCTYPE svg PUBLIC "-//W3C//DTD SVG 1.1//EN" "http://www.w3.org/Graphics/SVG/1.1/DTD/svg11.dtd">
<svg width="100%" height="100%" viewBox="0 0 250 250" version="1.1" xmlns="http://www.w3.org/2000/svg" xmlns:xlink="http://www.w3.org/1999/xlink" xml:space="preserve" xmlns:serif="http://www.serif.com/" style="fill-rule:evenodd;clip-rule:evenodd;stroke-linecap:round;stroke-linejoin:round;stroke-miterlimit:1.5;">
    <g transform="matrix(1,0,0,1,-259,0)">
        <g id="Bone" transform="matrix(1.25,0,0,1.25,259,0)">
            <rect x="0" y="0" width="200" height="200" style="fill:none;"/>
            <g id="Bone1" serif:id="Bone" transform="matrix(0.0739064,-2.41247e-17,2.22521e-17,0.0739064,4.84998,-5.24424)">
                <path d="M1096.12,869.716C1087.21,864.97 1078.48,859.632 1070,853.694L988.088,796.336C875.062,717.195 847.553,561.179 926.694,448.154C1005.84,335.128 1161.85,307.619 1274.88,386.76L1287.44,395.557L1300,386.76C1413.03,307.619 1569.04,335.128 1648.18,448.154C1727.33,561.179 1699.82,717.195 1586.79,796.336L1504.88,853.694C1496.4,859.627 1487.69,864.961 1478.78,869.707L1461.07,1404.91L1479.14,1978.53C1487.92,1983.22 1496.51,1988.49 1504.88,1994.35L1586.79,2051.7C1699.82,2130.85 1727.33,2286.86 1648.18,2399.89C1569.04,2512.91 1413.03,2540.42 1300,2461.28L1287.44,2452.48L1274.88,2461.28C1161.85,2540.42 1005.84,2512.91 926.694,2399.89C847.553,2286.86 875.062,2130.85 988.088,2051.7L1070,1994.35C1078.36,1988.5 1086.95,1983.23 1095.73,1978.54L1113.81,1400.44L1096.12,869.716Z" style="fill:rgb(230,97,26);"/>
                <clipPath id="_clip1">
                    <path d="M1096.12,869.716C1087.21,864.97 1078.48,859.632 1070,853.694L988.088,796.336C875.062,717.195 847.553,561.179 926.694,448.154C1005.84,335.128 1161.85,307.619 1274.88,386.76L1287.44,395.557L1300,386.76C1413.03,307.619 1569.04,335.128 1648.18,448.154C1727.33,561.179 1699.82,717.195 1586.79,796.336L1504.88,853.694C1496.4,859.627 1487.69,864.961 1478.78,869.707L1461.07,1404.91L1479.14,1978.53C1487.92,1983.22 1496.51,1988.49 1504.88,1994.35L1586.79,2051.7C1699.82,2130.85 1727.33,2286.86 1648.18,2399.89C1569.04,2512.91 1413.03,2540.42 1300,2461.28L1287.44,2452.48L1274.88,2461.28C1161.85,2540.42 1005.84,2512.91 926.694,2399.89C847.553,2286.86 875.062,2130.85 988.088,2051.7L1070,1994.35C1078.36,1988.5 1086.95,1983.23 1095.73,1978.54L1113.81,1400.44L1096.12,869.716Z"/>
                </clipPath>
                <g clip-path="url(#_clip1)">
                    <g id="pancakeswap-cake-logo.svg" transform="matrix(24.1742,7.89099e-15,-7.27849e-15,24.1742,1287.44,728.357)">
                        <g transform="matrix(1,0,0,1,-15.85,-16)">
                            <clipPath id="_clip2">
                                <rect x="0" y="0" width="31.7" height="32"/>
                            </clipPath>
                            <g clip-path="url(#_clip2)">
                                <path d="M5.7,5C5.2,2.4 7.2,0 9.8,0C12.1,0 14,1.9 14,4.2L14,9.4C14.6,9.4 15.2,9.3 15.8,9.3C16.4,9.3 16.9,9.3 17.5,9.4L17.5,4.2C17.5,1.9 19.4,0 21.7,0C24.3,0 26.3,2.4 25.9,5L24.8,11.1C28.7,12.8 31.7,15.8 31.7,19.5L31.7,21.8C31.7,24.9 29.7,27.5 26.8,29.2C23.9,31 20.1,32 15.8,32C11.5,32 7.7,31 4.8,29.2C2,27.5 0,24.9 0,21.8L0,19.5C0,15.8 2.9,12.8 6.8,11.1L5.7,5ZM23.3,11.9L24.6,4.7C24.9,2.9 23.6,1.2 21.7,1.2C20.1,1.2 18.8,2.5 18.8,4.1L18.8,10.7C18.4,10.6 17.9,10.6 17.5,10.6C16.9,10.6 16.4,10.5 15.8,10.5C15.2,10.5 14.6,10.5 14,10.6C13.6,10.6 13.1,10.7 12.7,10.7L12.7,4.2C12.7,2.6 11.4,1.3 9.8,1.3C8,1.3 6.6,3 7,4.8L8.3,12C4.1,13.6 1.3,16.4 1.3,19.6L1.3,21.9C1.3,26.8 7.8,30.8 15.8,30.8C23.8,30.8 30.3,26.8 30.3,21.9L30.3,19.6C30.4,16.3 27.6,13.5 23.3,11.9Z" style="fill:rgb(99,48,1);"/>
                                <path d="M30.4,21.8C30.4,26.7 23.9,30.7 15.9,30.7C7.9,30.7 1.4,26.7 1.4,21.8L1.4,19.5L30.5,19.5L30.5,21.8L30.4,21.8Z" style="fill:rgb(254,220,144);fill-rule:nonzero;"/>
                                <path d="M7,4.8C6.6,3 8,1.3 9.8,1.3C11.4,1.3 12.7,2.6 12.7,4.2L12.7,10.8C13.7,10.7 14.7,10.6 15.8,10.6C16.8,10.6 17.8,10.7 18.8,10.8L18.8,4.2C18.8,2.6 20.1,1.3 21.7,1.3C23.5,1.3 24.9,3 24.6,4.8L23.3,12C27.5,13.6 30.4,16.4 30.4,19.6C30.4,24.5 23.9,28.5 15.9,28.5C7.9,28.5 1.4,24.5 1.4,19.6C1.4,16.4 4.2,13.6 8.4,12L7,4.8Z" style="fill:rgb(209,136,79);"/>
                                <path d="M11.8,18.9C11.8,20.2 11.1,21.3 10.2,21.3C9.3,21.3 8.6,20.2 8.6,18.9C8.6,17.6 9.3,16.5 10.2,16.5C11.1,16.5 11.8,17.6 11.8,18.9Z" style="fill:rgb(99,48,1);fill-rule:nonzero;"/>
                                <path d="M22.9,18.9C22.9,20.2 22.2,21.3 21.3,21.3C20.4,21.3 19.7,20.2 19.7,18.9C19.7,17.6 20.4,16.5 21.3,16.5C22.2,16.5 22.9,17.6 22.9,18.9Z" style="fill:rgb(99,48,1);fill-rule:nonzero;"/>
                            </g>
                        </g>
                    </g>
                </g>
                <path d="M1096.12,869.716C1087.21,864.97 1078.48,859.632 1070,853.694L988.088,796.336C875.062,717.195 847.553,561.179 926.694,448.154C1005.84,335.128 1161.85,307.619 1274.88,386.76L1287.44,395.557L1300,386.76C1413.03,307.619 1569.04,335.128 1648.18,448.154C1727.33,561.179 1699.82,717.195 1586.79,796.336L1504.88,853.694C1496.4,859.627 1487.69,864.961 1478.78,869.707L1461.07,1404.91L1479.14,1978.53C1487.92,1983.22 1496.51,1988.49 1504.88,1994.35L1586.79,2051.7C1699.82,2130.85 1727.33,2286.86 1648.18,2399.89C1569.04,2512.91 1413.03,2540.42 1300,2461.28L1287.44,2452.48L1274.88,2461.28C1161.85,2540.42 1005.84,2512.91 926.694,2399.89C847.553,2286.86 875.062,2130.85 988.088,2051.7L1070,1994.35C1078.36,1988.5 1086.95,1983.23 1095.73,1978.54L1113.81,1400.44L1096.12,869.716Z" style="fill:none;stroke:black;stroke-width:45.1px;"/>
            </g>
        </g>
    </g>
</svg>
