<?xml version="1.0" encoding="UTF-8" standalone="no"?>
<!DOCTYPE svg PUBLIC "-//W3C//DTD SVG 1.1//EN" "http://www.w3.org/Graphics/SVG/1.1/DTD/svg11.dtd">
<svg width="100%" height="100%" viewBox="0 0 1278 1384" version="1.1" xmlns="http://www.w3.org/2000/svg" xmlns:xlink="http://www.w3.org/1999/xlink" xml:space="preserve" xmlns:serif="http://www.serif.com/" style="fill-rule:evenodd;clip-rule:evenodd;stroke-linejoin:round;stroke-miterlimit:2;">
    <g transform="matrix(1,0,0,1,-71.6666,-76)">
        <g id="Image">
            <g>
                <g id="Small-Toe" serif:id="Small Toe" transform="matrix(1,0,0,1,7.88596,-7.30914)">
                    <path d="M1033.26,1144.09C984.243,1138.84 948.966,1118 927.973,1081.89C924.497,1075.91 920.294,1067.42 918.632,1063.02C916.971,1058.62 915.1,1054.01 914.475,1052.77C913.85,1051.53 912.121,1043.5 910.632,1034.93C906.124,1008.97 907.584,978.254 914.652,950.352C917.479,939.193 925.715,914.493 927.852,910.766C928.614,909.439 931.33,903.852 933.888,898.352C950.029,863.654 971.74,833.117 1001.22,803.653C1029.41,775.479 1058.85,754.014 1091.69,737.701C1112.15,727.537 1118.75,724.819 1135.92,719.483C1155.96,713.258 1173.54,710.256 1194.59,709.465C1223.76,708.369 1247.54,712.905 1269.92,723.837C1284.82,731.111 1294.41,738.345 1307.27,751.999C1330.22,776.379 1341.62,809.385 1341.48,851.019C1341.34,890.531 1329.42,931.825 1306.22,973.17C1286.07,1009.06 1263.96,1036.73 1233.42,1064.27C1218.5,1077.73 1181.21,1105.02 1177.76,1105.02C1177.34,1105.02 1175.41,1106.14 1173.46,1107.51C1160.44,1116.67 1118.95,1134 1101.26,1137.66C1098.69,1138.19 1094.19,1139.15 1091.26,1139.79C1075.2,1143.29 1046.01,1145.46 1033.26,1144.09Z" style="fill:rgb(255,154,68);fill-rule:nonzero;"/>
                </g>
                <g id="Middle-Toe" serif:id="Middle Toe" transform="matrix(1,0,0,1,7.88596,-7.30914)">
                    <path d="M953.925,722.405C897.118,715.673 856.391,680.697 842.294,626.535C838.583,612.276 838.251,609.182 838.201,588.352C838.107,549.378 845.863,519.078 866.818,476.556C880.034,449.737 901.589,419.582 924.491,395.872C958.894,360.256 1005.98,328.132 1043.92,314.396C1046.49,313.466 1050.39,311.926 1052.59,310.973C1054.79,310.02 1062.55,307.66 1069.84,305.729C1107.02,295.872 1144.49,295.936 1174.22,305.906C1184.46,309.338 1205.19,320.182 1211.84,325.577C1215.54,328.578 1231.75,344.956 1233.92,347.889C1245.24,363.13 1253.69,381.569 1257.96,400.352C1260.23,410.337 1262.47,438.221 1261.7,447.019C1259.43,473.113 1252.91,501.538 1245.18,519.019C1244.54,520.485 1241.55,527.337 1238.56,534.244C1233.54,545.819 1226.66,558.745 1219.33,570.352C1214.69,577.71 1205.31,591.721 1203.88,593.448C1203.16,594.312 1200.02,598.307 1196.91,602.327C1188.94,612.628 1180.98,621.391 1168.62,633.468C1130.18,671.018 1088.31,697.17 1041.19,713.041C1018.31,720.75 977.189,725.162 953.925,722.405Z" style="fill:rgb(255,154,68);fill-rule:nonzero;"/>
                </g>
                <g id="Index-Toe" serif:id="Index Toe" transform="matrix(1,0,0,1,7.88596,-7.30914)">
                    <path d="M656.592,567.68C641.175,565.354 618.324,555.538 605.956,545.929C575.38,522.175 554.06,484.523 545.324,438.851C540.486,413.56 539.266,392.592 541.144,367.019C545.384,309.252 558.144,265.626 585.519,215.298C614.021,162.899 651.112,124.066 693.258,102.502C712.544,92.634 723.909,88.568 739.827,85.84C782.824,78.47 820.063,90.196 849.437,120.355C861.054,132.283 869.142,144.013 877.553,161.129C893.606,193.8 900.316,226.287 900.25,271.019C900.179,318.559 891.956,358.388 872.373,406.043C867.229,418.56 854.118,444.374 848.852,452.352C830.777,479.738 814.474,499.901 799.087,513.901C788.74,523.314 768.597,539.685 767.36,539.685C767.011,539.685 764.018,541.513 760.708,543.747C752.47,549.306 732.043,558.827 719.816,562.805C702.935,568.298 674.974,570.454 656.592,567.68Z" style="fill:rgb(255,154,68);fill-rule:nonzero;"/>
                </g>
                <g id="Left-Toe" serif:id="Left Toe" transform="matrix(1,0,0,1,7.88596,-7.30914)">
                    <path d="M221.925,723.814C196.031,717.318 173.424,701.777 158.592,680.277C137.345,649.477 127.664,620.08 123.728,574.408C119.136,521.131 133.971,445.998 160.003,390.694C162.893,384.552 165.258,379.238 165.258,378.884C165.258,377.523 183.274,345.115 190.384,333.685C224.81,278.342 277.85,231.448 323.109,216.34C359.68,204.132 397.029,207.248 423.91,224.75C433.563,231.035 451.204,248.803 458.596,259.685C472.445,280.073 483.905,312.89 488.63,345.685C492.218,370.588 491.317,410.731 486.475,441.685C480.906,477.287 466.559,522.985 450.684,555.685C441.68,574.234 435.718,585.439 432.595,589.685C430.977,591.885 428.722,595.496 427.582,597.708C426.443,599.921 421.457,607.421 416.502,614.375C372.565,676.04 321.275,714.824 270.925,724.458C257.334,727.058 233.613,726.746 221.925,723.814Z" style="fill:rgb(255,154,68);fill-rule:nonzero;"/>
                </g>
                <path id="Paw-Pad" serif:id="Paw Pad" d="M646.297,1458.84C622.188,1456.44 601.263,1449.77 581.144,1438.07C560.807,1426.24 556.843,1422.93 526.478,1392.33C496.367,1362 484.471,1351.03 467.144,1337.62C462.011,1333.65 457.16,1329.8 456.364,1329.06C452.061,1325.05 423.44,1305.77 412.636,1299.61C380.787,1281.44 377.472,1279.8 349.709,1268.42C319.237,1255.92 269.941,1241.64 239.144,1236.38C227.306,1234.35 209.953,1229.99 204.599,1227.69C202.332,1226.72 197.478,1224.6 193.811,1222.97C190.144,1221.35 184.444,1218.86 181.144,1217.44C168.226,1211.88 145.499,1195.08 131.626,1180.83C100.64,1149.02 80.813,1107.6 73.706,1059.82C70.716,1039.72 71.726,998.75 75.666,980.376C81.953,951.052 93.354,921.65 106.169,901.71C108.762,897.676 112.422,891.976 114.305,889.043C128.893,866.311 152.343,842.663 180.024,822.772C190.369,815.339 278.958,770.305 322.478,750.356C333.111,745.481 355.311,735.308 371.811,727.749C388.311,720.19 409.311,710.882 418.478,707.066C427.644,703.25 438.936,698.383 443.571,696.252C448.205,694.12 452.488,692.376 453.088,692.376C453.688,692.376 460.697,689.645 468.662,686.306C476.627,682.968 492.444,676.664 503.811,672.298C515.178,667.932 530.478,662.013 537.811,659.145C545.144,656.277 558.344,651.446 567.144,648.409C575.944,645.372 585.544,641.958 588.478,640.821C595.971,637.917 626.332,627.061 631.144,625.565C645.773,621.017 677.801,616.923 688.08,618.286C691.647,618.759 697.696,619.463 701.522,619.85C724.416,622.164 750.311,631.745 771.015,645.562C784.514,654.571 803.52,671.972 809.269,680.585C811.034,683.23 814.341,688.015 816.619,691.218C825.207,703.299 835.66,726.139 840.546,743.5C842.566,750.678 842.575,753.038 840.652,773.5C839.505,785.715 837.809,808.61 836.883,824.376C834.637,862.637 834.633,993.429 836.873,1024.38C842.484,1101.77 849.537,1160.97 860.86,1225.71C866.252,1256.54 865.332,1275.74 856.984,1306.53C851.928,1325.17 839.054,1352.37 827.141,1369.57C823.764,1374.45 807.964,1393.25 801.146,1400.51C788.492,1413.98 764.137,1431.56 745.12,1440.96C716.461,1455.13 678.308,1462.03 646.294,1458.84L646.297,1458.84ZM694.534,961.654C701.606,914.37 665.607,888.952 616.381,871.997L632.35,807.946L593.36,798.23L577.815,860.595C567.564,858.038 557.038,855.63 546.576,853.242L562.234,790.465L523.269,780.75L507.291,844.78C498.808,842.849 482.44,838.728 482.44,838.728L428.672,825.301L418.3,866.944C418.3,866.944 444.352,873.325 446.618,873.983C462.406,877.924 465.262,888.376 464.787,896.66L421.032,1072.13C419.102,1076.93 414.205,1084.13 403.166,1081.39C403.557,1081.96 374.828,1074.32 374.828,1074.32L355.47,1118.95C355.47,1118.95 424.898,1136.44 434.007,1138.77L417.873,1203.56L456.818,1213.27L472.796,1149.17C483.435,1152.06 493.76,1154.73 503.868,1157.24L487.943,1221.04L526.935,1230.75L543.068,1166.09C609.553,1178.67 659.546,1173.6 680.588,1113.46C697.544,1065.04 679.744,1037.12 644.766,1018.9C670.242,1013.03 689.431,996.273 694.548,961.659L694.536,961.651L694.534,961.654ZM605.451,1086.57C593.402,1134.99 511.883,1108.82 485.453,1102.25L506.863,1016.42C533.291,1023.02 618.044,1036.08 605.453,1086.57L605.451,1086.57ZM617.509,960.953C606.518,1004.99 538.668,982.618 516.659,977.132L536.07,899.29C558.08,904.776 628.96,915.016 617.513,960.953L617.509,960.953Z" style="fill:rgb(255,154,68);fill-rule:nonzero;"/>
            </g>
        </g>
    </g>
</svg>
