<?xml version="1.0" encoding="UTF-8" standalone="no"?>
<!DOCTYPE svg PUBLIC "-//W3C//DTD SVG 1.1//EN" "http://www.w3.org/Graphics/SVG/1.1/DTD/svg11.dtd">
<svg width="100%" height="100%" viewBox="0 0 250 250" version="1.1" xmlns="http://www.w3.org/2000/svg" xmlns:xlink="http://www.w3.org/1999/xlink" xml:space="preserve" xmlns:serif="http://www.serif.com/" style="fill-rule:evenodd;clip-rule:evenodd;stroke-linecap:round;stroke-linejoin:round;stroke-miterlimit:1.5;">
    <g transform="matrix(1,0,0,1,0,-260)">
        <g id="Leash" transform="matrix(1.25,0,0,1.25,0,260)">
            <rect x="0" y="0" width="200" height="200" style="fill:none;"/>
            <g id="Dog-Leash" serif:id="Dog Leash" transform="matrix(1.46554,0,0,1.98609,-1083.65,-640.881)">
                <g id="Outline" transform="matrix(0.272992,0,0,0.201442,751.594,324.124)">
                    <path d="M98.209,124.487C240.875,-25.891 304.353,76.181 308.109,82.965C328.517,124.235 287.126,152.721 292.35,183.05C299.535,224.149 343.706,247.914 349.516,298.895C357.372,402.652 284.582,441.642 238.97,442.719C142.251,444.932 99.309,358.398 75.849,305.359C52.389,252.32 59.499,161.552 98.209,124.487ZM122.113,173.339C110.245,149.268 133.378,128.488 158.67,131.971C208.38,91.727 246.949,48.488 277.557,91.298C290.561,115.937 266.292,154.321 223.396,176.96C180.5,199.6 135.116,197.977 122.113,173.339Z" style="fill:rgb(236,164,0);stroke:black;stroke-width:8.33px;"/>
                </g>
                <g id="Side-Panel" serif:id="Side Panel" transform="matrix(0.318357,0,0,0.234917,391.849,319.641)">
                    <path d="M1214.16,133.64C1263.99,76.46 1336.03,34.548 1381.29,82.392C1405.72,106.362 1388.02,135.471 1380.07,150.752C1376.51,161.509 1367.22,180.983 1396.82,218.775C1407.6,232.463 1416.22,246.669 1420.8,260.788C1428.09,286.036 1424.48,323.702 1400.75,347.63C1368.16,380.222 1303.08,377.806 1268.12,342.839C1242.27,316.993 1199.14,273.799 1214.16,133.64ZM1230.15,168.866C1219.11,143.08 1243.52,124.118 1265.21,127.104C1310.69,87.45 1345.2,57.233 1371.44,93.943C1382.6,115.07 1370.93,148.842 1321.57,175.973C1287.64,194.243 1241.58,194.853 1230.15,168.866Z" style="fill:rgb(217,67,14);"/>
                </g>
                <g id="Handle-Overlay" serif:id="Handle Overlay" transform="matrix(0.318357,0,0,0.234917,391.849,319.641)">
                    <path d="M1220.78,169.949C1207.37,144.556 1242.11,109.458 1284.91,86.866C1327.72,64.274 1363.06,63.117 1376.47,88.51C1393.01,122.764 1374.28,156.861 1331.48,179.453C1288.42,203.795 1240.14,205.38 1220.78,169.949ZM1231,171.438C1220.83,150.798 1231.23,127.834 1264.35,127.676C1308.69,88.308 1345.48,57.233 1371.73,93.943C1382.88,115.07 1369.22,150.843 1322.71,175.402C1285.93,194.815 1242.15,192.566 1231,171.438Z" style="fill:rgb(236,164,0);"/>
                </g>
                <g id="Badge-Circle" serif:id="Badge Circle" transform="matrix(0.067666,-0.049931,0.0740666,0.054654,645.463,400.494)">
                    <circle cx="1412.55" cy="1004.55" r="244" style="fill:white;"/>
                </g>
                <g id="bitcoin-sv-bsv-logo.svg" transform="matrix(0.01529,0,0,0.0112826,815.448,384.867)">
                    <g transform="matrix(1,0,0,1,-1249.8,-1250)">
                        <clipPath id="_clip1">
                            <rect x="0" y="0" width="2499.6" height="2500"/>
                        </clipPath>
                        <g clip-path="url(#_clip1)">
                            <path d="M2499.6,1250C2499.6,1940.2 1940,2499.8 1249.5,2499.9C559.5,2499.9 -0.1,1940.2 0,1249.9C-0.2,559.6 559.4,0 1249.7,0C1940,0 2499.6,559.7 2499.6,1250Z" style="fill:rgb(234,179,0);fill-rule:nonzero;"/>
                            <g>
                                <path d="M1741.5,943.8C1725.4,776.4 1580.9,720.3 1398.3,704.3L1398.3,472L1257,472L1257,698.1C1219.9,698.1 1181.9,698.8 1144.2,699.6L1144.2,472L1002.9,472L1002.8,704.1C972.2,704.7 942.1,705.3 912.8,705.3L912.8,704.6L717.9,704.5L717.9,855.5C717.9,855.5 822.3,853.5 820.5,855.4C877.8,855.4 896.4,888.6 901.8,917.3L901.8,1181.9C905.8,1181.9 910.9,1182.1 916.7,1182.9L901.8,1182.9L901.7,1553.6C899.2,1571.6 888.6,1600.3 848.6,1600.4C850.4,1602 745.9,1600.4 745.9,1600.4L717.8,1769.2L901.8,1769.2C936,1769.2 969.7,1769.8 1002.7,1770L1002.8,2004.9L1144,2004.9L1144,1772.5C1182.7,1773.3 1220.2,1773.6 1256.9,1773.6L1256.8,2004.9L1398.1,2004.9L1398.1,1770.5C1635.7,1756.9 1802.2,1697 1822.8,1473.8C1839.5,1294.1 1755,1213.8 1620.1,1181.4C1702.2,1139.8 1753.5,1066.3 1741.5,943.8ZM1543.7,1446C1543.7,1621.5 1243.2,1601.6 1147.3,1601.6L1147.3,1290.3C1243.2,1290.5 1543.7,1263 1543.7,1446ZM1477.9,1006.9C1477.9,1166.6 1227.1,1147.9 1147.3,1148L1147.3,865.8C1227.2,865.8 1478,840.4 1477.9,1006.9Z" style="fill:white;fill-rule:nonzero;"/>
                                <rect x="902" y="1175.7" width="21" height="15.5" style="fill:white;fill-rule:nonzero;"/>
                            </g>
                        </g>
                    </g>
                </g>
                <g id="Button" transform="matrix(4.74627e-18,-0.0571967,0.0775124,3.50229e-18,731.602,463.65)">
                    <path d="M1462.57,494.219C1462.57,494.219 1503.86,523.088 1527.91,526.219C1570.57,531.775 1655.42,520.359 1718.57,527.553C1788.8,535.553 1949.24,574.219 1949.24,574.219C1949.24,574.219 1949.33,563.83 1949.74,550.092C1951.12,536.286 1952.49,524.214 1924.55,515.486C1874,498.219 1807.42,479.723 1717.24,471.553C1604.13,468.442 1462.57,494.219 1462.57,494.219Z" style="stroke:black;stroke-width:7.04px;"/>
                </g>
                <g id="Retractor" transform="matrix(-0.0353219,-0.0509128,0.0689966,-0.0260642,781.499,467.536)">
                    <path d="M1142.7,505.533C1171.51,506.06 1184.59,518.507 1203.23,520.219C1264.35,527.511 1307.8,545.964 1307.8,567.553C1307.8,595.516 1234.91,618.219 1145.13,618.219C1055.35,618.219 982.464,595.516 982.464,567.553C982.464,549.686 1012.22,533.967 1057.12,524.945C1066.97,522.382 1110.29,505.533 1142.7,505.533Z"/>
                </g>
            </g>
        </g>
    </g>
</svg>
