<?xml version="1.0" encoding="UTF-8" standalone="no"?>
<!DOCTYPE svg PUBLIC "-//W3C//DTD SVG 1.1//EN" "http://www.w3.org/Graphics/SVG/1.1/DTD/svg11.dtd">
<svg width="100%" height="100%" viewBox="0 0 100 100" version="1.1" xmlns="http://www.w3.org/2000/svg" xmlns:xlink="http://www.w3.org/1999/xlink" xml:space="preserve" xmlns:serif="http://www.serif.com/" style="fill-rule:evenodd;clip-rule:evenodd;stroke-linejoin:round;stroke-miterlimit:2;">
    <path d="M100,50C100,77.613 77.613,100 50,100C22.387,100 0,77.613 0,50C0,22.387 22.387,0 50,0C77.619,0 100,22.387 100,50Z" style="fill:white;fill-rule:nonzero;"/>
    <path d="M24.668,51.68L24.884,51.341L37.891,30.993C38.081,30.695 38.528,30.726 38.671,31.05C40.844,35.92 42.719,41.976 41.841,45.747C41.466,47.298 40.439,49.399 39.283,51.341C39.134,51.624 38.969,51.901 38.795,52.168C38.713,52.291 38.574,52.363 38.425,52.363L25.048,52.363C24.688,52.363 24.478,51.973 24.668,51.68Z" style="fill:rgb(255,154,68);fill-rule:nonzero;"/>
    <path d="M82.644,55.461L82.644,58.682C82.644,58.867 82.531,59.031 82.367,59.103C81.36,59.535 77.913,61.117 76.48,63.11C72.822,68.201 70.028,75.48 63.781,75.48L37.721,75.48C28.485,75.48 21,67.97 21,58.702L21,58.405C21,58.158 21.2,57.958 21.447,57.958L35.975,57.958C36.262,57.958 36.473,58.225 36.447,58.507C36.344,59.452 36.519,60.418 36.966,61.297C37.829,63.048 39.617,64.143 41.548,64.143L48.74,64.143L48.74,58.528L41.63,58.528C41.266,58.528 41.05,58.106 41.261,57.809C41.338,57.69 41.425,57.567 41.517,57.429C42.19,56.473 43.151,54.988 44.106,53.298C44.759,52.158 45.391,50.94 45.899,49.718C46.002,49.497 46.084,49.271 46.166,49.05C46.305,48.66 46.449,48.295 46.552,47.93C46.654,47.622 46.737,47.298 46.819,46.995C47.06,45.957 47.163,44.858 47.163,43.718C47.163,43.271 47.142,42.803 47.101,42.356C47.081,41.868 47.019,41.38 46.957,40.892C46.916,40.461 46.839,40.034 46.757,39.588C46.654,38.935 46.511,38.288 46.346,37.635L46.29,37.389C46.166,36.942 46.064,36.516 45.92,36.069C45.514,34.666 45.047,33.3 44.553,32.021C44.374,31.512 44.168,31.024 43.963,30.536C43.66,29.802 43.351,29.134 43.069,28.502C42.925,28.214 42.802,27.952 42.678,27.685C42.54,27.382 42.396,27.079 42.252,26.791C42.149,26.57 42.031,26.365 41.949,26.159L41.07,24.536C40.947,24.315 41.153,24.053 41.394,24.12L46.891,25.61L46.906,25.61C46.916,25.61 46.922,25.615 46.927,25.615L47.651,25.815L48.447,26.041L48.74,26.123L48.74,22.856C48.74,21.279 50.004,20 51.565,20C52.346,20 53.055,20.319 53.564,20.837C54.072,21.356 54.391,22.065 54.391,22.856L54.391,27.706L54.976,27.87C55.023,27.885 55.069,27.906 55.11,27.937C55.254,28.045 55.459,28.204 55.721,28.399C55.927,28.563 56.148,28.764 56.415,28.969C56.944,29.396 57.576,29.945 58.269,30.577C58.454,30.736 58.634,30.901 58.798,31.065C59.692,31.897 60.694,32.873 61.649,33.952C61.917,34.255 62.179,34.564 62.446,34.887C62.713,35.216 62.995,35.539 63.242,35.863C63.566,36.295 63.915,36.742 64.218,37.209C64.362,37.43 64.526,37.656 64.665,37.877C65.055,38.468 65.399,39.079 65.728,39.69C65.867,39.973 66.011,40.281 66.134,40.584C66.499,41.401 66.786,42.233 66.971,43.065C67.028,43.245 67.069,43.44 67.09,43.615L67.09,43.656C67.151,43.903 67.172,44.165 67.192,44.432C67.274,45.285 67.233,46.137 67.048,46.995C66.971,47.36 66.869,47.704 66.745,48.069C66.622,48.418 66.499,48.783 66.34,49.127C66.031,49.841 65.667,50.555 65.235,51.223C65.096,51.469 64.932,51.731 64.768,51.978C64.588,52.24 64.403,52.487 64.238,52.728C64.012,53.036 63.771,53.36 63.524,53.648C63.304,53.951 63.078,54.254 62.831,54.521C62.487,54.927 62.158,55.312 61.814,55.682C61.608,55.923 61.387,56.17 61.161,56.391C60.941,56.637 60.714,56.858 60.509,57.064C60.165,57.408 59.877,57.675 59.636,57.896L59.071,58.415C58.988,58.487 58.881,58.528 58.768,58.528L54.391,58.528L54.391,64.143L59.898,64.143C61.131,64.143 62.302,63.706 63.247,62.905C63.571,62.622 64.983,61.399 66.653,59.555C66.709,59.493 66.781,59.447 66.864,59.427L82.074,55.03C82.357,54.947 82.644,55.163 82.644,55.461Z" style="fill:rgb(255,154,68);fill-rule:nonzero;"/>
</svg>
