<?xml version="1.0" encoding="UTF-8" standalone="no"?>
<!DOCTYPE svg PUBLIC "-//W3C//DTD SVG 1.1//EN" "http://www.w3.org/Graphics/SVG/1.1/DTD/svg11.dtd">
<svg width="100%" height="100%" viewBox="0 0 100 100" version="1.1" xmlns="http://www.w3.org/2000/svg" xmlns:xlink="http://www.w3.org/1999/xlink" xml:space="preserve" xmlns:serif="http://www.serif.com/" style="fill-rule:evenodd;clip-rule:evenodd;stroke-linejoin:round;stroke-miterlimit:2;">
    <g transform="matrix(0.102041,0,0,0.102041,-1.02041,-1.02041)">
        <g transform="matrix(9.79998,0,0,9.79998,7.47748,12.5225)">
            <circle cx="50.257" cy="49.743" r="43.694" style="fill:white;"/>
        </g>
        <path d="M500,990C770.6,990 990,770.6 990,500C990,229.4 770.6,10 500,10C229.4,10 10,229.4 10,500C10,770.6 229.4,990 500,990ZM356,374.5C450.2,422.1 529.8,419.3 529.8,419.3C529.8,419.3 499.6,314.1 592.9,267.5C686.2,220.9 750.4,299.5 750.4,299.5C750.4,299.5 766.7,295 778.8,290.6C790.9,286.1 808.5,278.2 808.5,278.2L779.8,329.5L824.1,324.8C824.1,324.8 818.6,332.8 800.9,349C783.2,365.2 775.9,373.6 775.9,373.6C775.9,373.6 782.2,500.2 715.5,597.7C648.8,695.2 562.6,753.7 437.4,766C312.2,778.3 230.7,727.6 230.7,727.6C230.7,727.6 285.4,724.5 320.3,711.1C355.2,697.8 405.4,662.6 405.4,662.6C405.4,662.6 334.1,640.6 308.4,616C282.8,591.3 276.4,576.7 276.4,576.7L346.8,575.8C346.8,575.8 272.7,536.5 251.7,505.4C230.7,474.3 227.9,444.1 227.9,444.1L282,466C282,466 237,404.8 230.6,357.2C224.2,309.6 238.8,284 238.8,284C238.8,284 261.8,326.9 356,374.5Z" style="fill:rgb(255,154,68);fill-rule:nonzero;"/>
    </g>
</svg>
