<?xml version="1.0" encoding="UTF-8" standalone="no"?>
<!DOCTYPE svg PUBLIC "-//W3C//DTD SVG 1.1//EN" "http://www.w3.org/Graphics/SVG/1.1/DTD/svg11.dtd">
<svg width="100%" height="100%" viewBox="0 0 2018 2018" version="1.1" xmlns="http://www.w3.org/2000/svg" xmlns:xlink="http://www.w3.org/1999/xlink" xml:space="preserve" xmlns:serif="http://www.serif.com/" style="fill-rule:evenodd;clip-rule:evenodd;stroke-linejoin:round;stroke-miterlimit:2;">
    <g transform="matrix(1,0,0,1,-231.496,-745.276)">
        <g transform="matrix(1,0,0,1,65.7942,298.726)">
            <circle cx="1174.36" cy="1455.21" r="1008.86" style="fill:rgb(30,30,30);"/>
        </g>
        <g transform="matrix(1,0,0,1,-74.8032,-1)">
            <g transform="matrix(0.770705,-0.444967,0.620177,1.07418,150.435,793.959)">
                <path d="M1067.08,881.995L1067.08,1612.33C1067.08,1709.77 956.823,1788.87 821.017,1788.87C685.211,1788.87 574.954,1709.77 574.954,1612.33L574.954,1163.23L946.772,1009.2C1014.43,981.175 1056.53,933.506 1067.08,881.995Z" style="fill:rgb(61,114,61);"/>
            </g>
            <g transform="matrix(-0.770705,-0.444967,-0.620177,1.07418,2479.49,793.959)">
                <path d="M1067.08,881.995C1056.53,933.506 1014.43,981.175 946.772,1009.2L574.954,1163.23L574.954,1612.33C574.954,1709.77 685.211,1788.87 821.017,1788.87C956.823,1788.87 1067.08,1709.77 1067.08,1612.33L1067.08,881.995Z" style="fill:rgb(79,164,79);"/>
            </g>
            <g transform="matrix(-0.770705,-0.444967,-0.620177,1.07418,2479.49,793.959)">
                <path d="M948.784,704.309L945.378,702.893L941.965,701.485C869.106,672.922 777.815,671.477 700.709,703.417L668.345,716.823C611.446,749.136 574.954,799.126 574.954,855.182L574.954,1163.23L946.772,1009.2C1014.43,981.175 1056.53,933.506 1067.08,881.995L1067.08,855.182C1067.08,791.301 1019.69,735.3 948.784,704.309Z" style="fill:rgb(95,206,95);"/>
            </g>
        </g>
    </g>
</svg>
