<?xml version="1.0" encoding="UTF-8" standalone="no"?>
<!DOCTYPE svg PUBLIC "-//W3C//DTD SVG 1.1//EN" "http://www.w3.org/Graphics/SVG/1.1/DTD/svg11.dtd">
<svg width="100%" height="100%" viewBox="0 0 800 800" version="1.1" xmlns="http://www.w3.org/2000/svg" xmlns:xlink="http://www.w3.org/1999/xlink" xml:space="preserve" xmlns:serif="http://www.serif.com/" style="fill-rule:evenodd;clip-rule:evenodd;stroke-linecap:round;stroke-linejoin:round;stroke-miterlimit:1.5;">
    <g>
        <g transform="matrix(5,3.9443e-31,-1.97215e-31,5.67376,-6172.2,-342.139)">
            <ellipse cx="1314.44" cy="130.802" rx="80" ry="70.5"/>
        </g>
        <g transform="matrix(1.10388,7.88861e-31,-2.46519e-31,1.10388,-770.957,-257.616)">
            <path d="M1215.95,621.787C1213.16,636.211 1201.03,646.12 1199,661.787C1196.29,682.628 1201.79,703.749 1199.72,724.453C1197.18,749.837 1178.79,779.517 1159.94,796.207C1138.68,815.037 1099.61,804.62 1073.28,809.273C1056.33,812.268 1041.02,820.103 1023.95,822.549C991.04,827.263 954.149,824.765 921.28,820.835C901.913,818.517 880.242,817.519 863.952,805.319C843.585,790.067 832.869,762.119 823.946,739.12C842.404,738.237 839.352,746.404 845.285,746.689C850.669,748.241 857.384,745.912 862.329,748.824C867.074,751.617 868.045,759.124 873.337,761.409C880.8,764.48 882.974,757.887 887.946,760.225C895.513,767.119 900.801,771.099 909.28,773.116C923.581,776.517 942.542,776.609 941.28,757.787C941.28,757.787 948.387,758.388 953.753,762.127C960.7,774.565 970.772,777.46 978.613,775.201C984.838,773.408 988.809,767.193 994.732,765.689C999.526,764.472 1003.4,768.528 1007.95,769.088C1016,770.081 1021.2,761.364 1023.95,755.12C1036.89,757.311 1044.68,756.609 1050.61,743.12C1069.48,752.603 1067.82,740.212 1076.94,729.08C1081.1,723.989 1090.59,717.26 1096.17,713.699C1113.72,702.507 1140.11,710.881 1155.81,696.168C1166.08,686.541 1162.89,672.829 1165.99,660.453C1168.44,650.599 1175.6,641.389 1180.29,632.453C1183.03,627.232 1188.12,613.913 1194.86,613.161C1201.4,612.431 1210.05,619.329 1215.95,621.787ZM968.472,738.591C979.544,733.302 987.066,738.389 989.49,745.879C991.914,753.369 989.242,763.261 979.926,767.583C959.805,776.917 955.201,744.931 968.472,738.591ZM935.946,693.787L934.613,767.12C923.494,767.12 899.037,770.384 894.328,756.4C892.093,749.765 899.288,742.887 902.541,737.787C912.03,722.908 922.69,708.787 931.946,693.787L935.946,693.787ZM1014.42,729.747C1022.8,730.127 1020.16,739.611 1018.95,747.267C1017.74,754.923 1013.97,762.151 1008.08,761.217C1001.03,760.098 997.692,747.301 1000.33,738.316C1002,732.648 1004.84,728.496 1014.42,729.747ZM868.144,715.817C872.853,714.675 894.293,716.08 897.237,719.924C902.705,727.068 885.585,752.064 878.406,753.933C868.208,756.587 857.782,718.333 868.144,715.817ZM1039.87,725.263C1046.51,725.954 1046.28,732.423 1044.9,738.625C1043.52,744.828 1039.59,750.765 1034.65,750.392C1026.49,749.776 1025.43,734.382 1027.44,727.156C1029.6,724.244 1035.04,724.626 1039.87,725.263ZM946.613,749.787C944.037,742.959 942.493,735.677 941.454,728.453C940.222,719.88 938.322,710.037 942.15,701.807C945.914,693.713 959.305,690.301 966.034,697.032C977.732,708.728 958.068,744.156 946.613,749.787ZM843.946,707.12L855.946,709.787L859.946,739.12C855.776,739.647 849.778,741.628 846.032,738.88C838.973,733.703 840.693,713.891 843.946,707.12ZM1062.54,719.091C1068.85,718.575 1068.47,725.457 1068.35,730.069C1068.23,734.681 1066.16,739.424 1062.49,739.832C1057.59,740.377 1054.58,735.22 1054.31,729.913C1054.04,724.606 1053.1,719.548 1062.54,719.091ZM834.613,702.453L834.613,732.453C822.032,728.88 824.149,711.135 826.613,700.787L834.613,702.453ZM986.672,696.913C995.895,694.963 998.624,701.418 997.82,708.689C997.016,715.959 992.679,724.045 987.769,725.356C972.305,729.485 976.461,699.073 986.672,696.913ZM1018.61,720.453C1014.9,720.453 1010.4,721.099 1006.81,720.029C990.025,715.033 1021.93,681.208 1020.82,707.121C1020.62,711.561 1019.18,716.039 1018.61,720.453ZM1041.28,695.12C1041.53,700.995 1042.14,706.011 1040.89,709.716C1039.63,713.422 1036.51,715.817 1029.28,716.453C1029.28,705.543 1027.87,695.279 1041.28,695.12ZM833.28,655.12C842.233,631.972 872.242,622.561 879.782,599.12C884.616,584.091 868.957,572.248 871.572,557.787C874.72,540.375 889.826,526.535 897.534,511.12C910.638,484.916 911.514,455.517 921.213,428.453C926.069,414.9 929.466,402.655 943.946,396.797C972.958,385.06 987.744,407.659 1014.61,410.875C1036.62,413.508 1060.24,403.635 1082.61,404.507C1092.71,404.9 1103.72,406.251 1113.28,409.607C1159.07,425.685 1154.95,479.847 1153.23,519.12C1152.61,533.327 1150.6,548.224 1156.65,561.787C1164.57,579.527 1196.67,583.249 1213.28,590.356C1217.83,592.307 1233.18,597.227 1230.38,604.243C1225.37,616.76 1211.93,609.536 1203.95,605.972C1181.9,596.128 1157.11,585.596 1134.61,600.321C1123.85,607.368 1122.03,617.86 1114.21,627.12C1105.01,638.009 1090.04,643.909 1087.24,659.12C1084.72,672.761 1095.45,704.948 1081.21,714.104C1075.81,717.571 1073.52,713.451 1073.31,708.447C1072.97,700.64 1077.7,686.711 1065.84,685.668C1054.31,685.924 1044.59,687.578 1032.22,688.781C1028.7,690.356 1026.22,692.126 1022.61,692.211C1014.16,689.357 1010.38,690.293 1003.79,693.769C1000.22,694.029 994.035,689.766 989.28,689.859C984.02,689.96 978.434,693.069 973.28,692.167C968.169,691.272 963.869,687.643 958.613,686.732C952.245,686.645 944.947,688.309 937.776,682.048C934.297,683.702 931.062,684.259 928.38,682.945C922.517,680.073 920.057,673.615 913.28,671.265C906.756,669.004 900.917,672.345 894.613,670.933C874.076,666.336 854.184,657.949 833.28,655.12ZM815.946,689.787C827.136,693.809 820.038,708.072 817.28,711.12L815.592,700.11L815.946,689.787ZM1066.61,692.453C1066.61,695.563 1066.67,698.679 1066.6,701.788C1066.19,723.579 1044.4,700.308 1058.8,693.645C1061.23,692.521 1064.01,692.575 1066.61,692.453L1066.61,692.453ZM905.333,678.489C922.27,675.085 926.128,705.26 910.56,709.363C905.281,710.753 890.562,709.328 888.057,705.368C884.441,698.895 898.92,679.779 905.333,678.489ZM877.285,675.704C887.291,673.123 890.396,677.889 887.865,685.342C883.533,692.795 877.166,702.935 871.826,703.905C851.701,707.561 866.48,678.492 877.285,675.704ZM1098.61,701.787C1095.49,691.224 1093.38,662.123 1099.76,652.699C1106.35,642.949 1118.56,637.345 1125.58,627.12C1128.65,622.648 1129.97,616.851 1133.68,612.888C1142.95,602.997 1166.39,597.647 1178.18,606.159C1186.07,611.851 1167.05,636.665 1163.65,643.12C1159.71,650.607 1156.23,658.68 1155.01,667.12C1154.04,673.853 1155.49,681.168 1151.19,687.047C1142.83,698.507 1112,699.017 1098.61,701.787ZM863.946,669.787C864.436,672.862 861.07,680.542 857.368,686.789C852.811,694.479 847.229,699.997 841.461,692.081C840.51,683.037 856.154,665.204 863.946,669.787ZM845.28,667.12C843.982,669.863 837.85,681.59 830.782,690.167C827.735,689.807 824.841,687.771 822.368,684.201C820.941,676.101 830.387,666.215 836.498,663.878C839.753,663.18 842.483,665.776 845.28,667.12ZM951.74,616.214C967.615,612.179 982.977,580.744 977.286,565.787C970.593,548.195 939.033,536.604 921.28,539.748C914.816,540.893 909.117,543.957 905.836,549.807C900.728,558.916 901.217,570.487 899.056,580.453C895.97,594.675 884.356,609.724 891.732,624.453C902.806,646.566 934.874,637.857 947.895,621.466L951.74,616.214ZM927.946,553.787C919.453,574.185 910.616,600.947 910.613,623.12C905.149,621.535 902.532,618.411 902.764,612.453C903.104,603.667 908.658,595.565 910.748,587.12C912.985,578.076 912.305,566.161 916.525,557.865C919.061,552.877 923.116,552.515 927.946,553.787ZM1082.61,393.787C1098.88,373.059 1130.84,372.111 1154.61,369.565C1184.42,366.375 1218.32,367.495 1242.61,387.559C1254.98,397.775 1263.33,411.825 1274.62,423.115C1285.53,434.027 1306.93,445.195 1309.03,461.787C1311.52,481.436 1302.94,499.597 1297.31,517.787C1288.83,545.197 1290.2,583.428 1258.61,597.415C1249.44,601.477 1241.5,597.221 1233.28,593.303C1218.67,586.337 1204.3,578.783 1189.28,572.721C1182.33,569.917 1172.53,568.017 1167.14,562.595C1160.67,556.089 1161.28,544.899 1161.28,536.453C1161.28,516.845 1163.07,497.435 1162.59,477.787C1161.9,449.4 1149.56,416.559 1122.61,403.551C1109.47,397.204 1096.11,397.784 1082.61,393.787ZM1066.61,439.12C1055.26,457.597 1039.6,477.476 1041.51,500.453C1041.73,503.129 1045.38,517.927 1039.72,516.945C1034.11,515.972 1033.51,508.827 1033.23,504.453C1032.42,491.479 1033.11,481.271 1035.53,468.453C1036.43,463.697 1034.72,456.493 1028.12,458.669C1016.88,462.372 1018.88,491.628 1019.72,500.453C1020.38,507.369 1019.21,514.161 1022.92,520.448C1032.47,536.663 1060.29,539.836 1077.28,537.387C1126.45,530.297 1141.27,453.365 1099.95,427.297C1086.87,419.049 1066.72,419.785 1053.28,426.887C1049.08,429.107 1038.01,440.467 1048.14,443.179C1054.12,444.779 1060,438.264 1066.61,439.12ZM966.613,415.811C945.704,420.28 943.232,441.172 936.116,457.787C930.902,469.96 919.341,481.716 917.776,495.12C915.024,518.688 945.978,519.544 961.28,516.448C994.389,509.751 995.804,488.484 1000.73,459.12C1004.82,434.704 997.076,409.3 966.613,415.811ZM966.613,429.787C970.11,446.623 952.181,466.02 945.697,480.453C942.685,487.159 944.192,493.616 942.189,500.251C941.133,503.752 937.876,504.189 934.913,502.485C928.252,498.655 932.65,490.64 935.433,485.787C942.414,473.612 948.629,461.631 953.532,448.453C956.494,440.492 957.853,432.908 966.613,429.787Z" style="fill:white;"/>
        </g>
        <g transform="matrix(1.10388,7.88861e-31,-2.46519e-31,1.10388,-772.061,-258.72)">
            <path d="M846.411,590.662C846.411,590.662 840.744,571.25 840.078,555.917C847.411,525.25 870.744,503.917 876.078,483.917C881.411,463.917 886.744,427.917 893.411,413.25C900.078,398.583 907.499,379.833 926.832,372.208C946.165,364.583 963.165,359.25 973.832,361.917C995.165,364.583 1012.17,378.25 1021.5,378.917C1038.16,379.583 1076.16,360.753 1090.83,352.917C1105.5,345.08 1163.5,338.413 1180.16,339.747C1196.83,341.08 1234.83,341.747 1258.83,363.747C1280.16,385.08 1297.03,405.747 1310.48,415.747C1323.92,428.413 1338.59,447.08 1338.59,455.747C1338.59,464.413 1337.25,499.747 1332.59,515.08C1327.92,530.413 1325.25,541.08 1323.25,551.08C1321.25,561.08 1307.92,601.747 1297.92,611.08C1287.92,620.413 1278.59,628.413 1253.92,638.413C1243.25,645.747 1232.59,654.253 1232.59,660C1232.59,665.747 1235.25,715.08 1233.92,725.08C1232.59,735.08 1219.92,775.08 1202.59,793.08C1185.25,811.08 1164.59,831.747 1151.92,834.413C1139.25,837.08 1093.25,836.413 1083.25,838.413C1073.25,840.413 1033.25,853.747 1014.59,853.747C995.92,853.747 903.68,851.08 887.68,845.747C871.68,840.413 848.347,831.08 839.013,818.413C829.68,805.747 791.68,754.413 786.347,707.747C783.68,687.08 782.347,671.865 788.347,662.139C803.68,638.413 820.592,616.413 820.592,616.413L846.411,590.662Z" style="fill:none;stroke:white;stroke-width:3.77px;"/>
        </g>
        <g transform="matrix(1.20209,8.38165e-31,-3.45127e-31,1.26704,-867.252,-360.817)">
            <path d="M820.699,589.791C820.699,589.791 823.297,569.508 822.63,554.174C829.963,523.508 852.378,503.917 857.712,483.917C863.045,463.917 872.97,427.917 879.636,413.25C886.303,398.583 907.499,382.446 926.832,374.822C946.165,367.197 963.165,366.22 973.832,368.886C995.165,371.553 1012.17,379.121 1021.5,379.788C1038.16,380.455 1076.16,360.753 1090.83,352.917C1105.5,345.08 1163.5,347.126 1180.16,348.459C1196.83,349.792 1228.4,354.426 1252.4,376.426C1274.66,391.66 1286.01,409.232 1299.45,419.232C1312.9,431.898 1324.81,442.724 1334,455.747C1334,464.413 1343.68,494.519 1337.18,515.08C1332.51,530.413 1325.25,541.08 1323.25,551.08C1322.24,556.146 1320.8,578.39 1311.89,600.405C1303.21,621.842 1287.21,643.063 1275.04,647.997C1264.37,655.33 1243.61,663.837 1243.61,669.583C1243.61,675.33 1242.6,715.951 1241.27,725.951C1239.93,735.951 1219.92,775.08 1202.59,793.08C1185.25,811.08 1164.59,831.747 1151.92,834.413C1139.25,837.08 1093.25,836.413 1083.25,838.413C1073.25,840.413 1033.25,853.747 1014.59,853.747C995.92,853.747 903.68,851.08 887.68,845.747C871.68,840.413 838.396,826.724 829.063,814.057C819.73,801.391 778.824,760.512 773.49,713.845C770.824,693.179 765.817,665.313 771.817,655.587C787.15,631.861 799.218,612.928 799.218,612.928L820.699,589.791Z" style="fill:none;stroke:white;stroke-width:3.37px;"/>
        </g>
    </g>
</svg>
