<?xml version="1.0" encoding="UTF-8" standalone="no"?>
<!DOCTYPE svg PUBLIC "-//W3C//DTD SVG 1.1//EN" "http://www.w3.org/Graphics/SVG/1.1/DTD/svg11.dtd">
<svg width="100%" height="100%" viewBox="0 0 875 875" version="1.1" xmlns="http://www.w3.org/2000/svg" xmlns:xlink="http://www.w3.org/1999/xlink" xml:space="preserve" xmlns:serif="http://www.serif.com/" style="fill-rule:evenodd;clip-rule:evenodd;stroke-linejoin:round;stroke-miterlimit:2;">
    <g transform="matrix(1,0,0,1,-510.447,-2261.91)">
        <g>
            <g transform="matrix(1,0,0,1,-817.97,1750.13)">
                <path d="M1765.42,511.659C2006.68,511.659 2202.56,707.532 2202.56,948.792C2202.56,1190.05 2006.68,1385.92 1765.42,1385.92C1524.16,1385.92 1328.29,1190.05 1328.29,948.792C1328.29,707.532 1524.16,511.659 1765.42,511.659ZM1765.42,594.461C1960.99,594.461 2119.76,753.232 2119.76,948.792C2119.76,1144.35 1960.99,1303.12 1765.42,1303.12C1569.86,1303.12 1411.09,1144.35 1411.09,948.792C1411.09,753.232 1569.86,594.461 1765.42,594.461Z" style="fill:rgb(230,169,26);"/>
            </g>
            <g>
                <g transform="matrix(0.970149,0,0,12.3012,-797.353,-20785.7)">
                    <ellipse cx="1798.49" cy="1909.13" rx="395.669" ry="31.205" style="fill:rgb(38,38,38);"/>
                </g>
                <g transform="matrix(0.74303,0,0,0.74303,-366.912,1669.13)">
                    <circle cx="1768.93" cy="1385.92" r="437.133" style="fill:rgb(230,169,26);"/>
                </g>
            </g>
        </g>
        <g transform="matrix(1,0,0,1,-820.992,1745.33)">
            <path d="M1699.06,1095.36L1699.06,1184.84C1699.06,1194.08 1706.55,1201.58 1715.79,1201.58C1725.02,1201.58 1732.52,1194.08 1732.52,1184.84L1732.52,1095.36L1806.83,1095.36L1806.83,1184.84C1806.83,1194.08 1814.32,1201.58 1823.56,1201.58C1832.79,1201.58 1840.29,1194.08 1840.29,1184.84L1840.29,1095.36L1940.04,1095.36C1950.99,1095.36 1959.88,1086.46 1959.88,1075.51L1959.88,934.613L1698.63,935.509L1698.56,963.048L1926.91,967.048L1924.94,1058.56L1612.89,1059.56L1612.89,844.863L1959.88,846.704L1959.88,831.734C1959.88,820.782 1950.99,811.891 1940.04,811.891L1840.29,811.891C1840.29,811.891 1840.29,722.324 1840.29,722.324C1840.29,713.089 1832.79,705.592 1823.56,705.592C1814.32,705.592 1806.83,713.089 1806.83,722.324L1806.83,811.891L1732.52,811.891C1732.52,811.891 1732.52,722.324 1732.52,722.324C1732.52,713.089 1725.02,705.592 1715.79,705.592C1706.55,705.592 1699.06,713.089 1699.06,722.324L1699.06,811.891C1699.06,811.891 1596.85,811.891 1596.85,811.891C1585.9,811.891 1577.01,820.782 1577.01,831.734L1577.01,1075.51C1577.01,1086.46 1585.9,1095.36 1596.85,1095.36L1699.06,1095.36Z" style="fill:rgb(38,38,38);"/>
        </g>
    </g>
</svg>
