<?xml version="1.0" standalone="no"?>
<!DOCTYPE svg PUBLIC "-//W3C//DTD SVG 20010904//EN"
 "http://www.w3.org/TR/2001/REC-SVG-20010904/DTD/svg10.dtd">
<svg version="1.0" xmlns="http://www.w3.org/2000/svg"
 width="1000.000000pt" height="1000.000000pt" viewBox="0 0 1000.000000 1000.000000"
 preserveAspectRatio="xMidYMid meet">

<g transform="translate(0.000000,1000.000000) scale(0.100000,-0.100000)"
fill="#000000" stroke="none">
<path d="M4120 9753 c-417 -31 -930 -157 -1285 -314 l-50 -22 61 -13 c183 -37
284 -143 284 -297 0 -64 -34 -185 -74 -264 -137 -274 -538 -601 -1057 -863
-87 -44 -159 -84 -159 -88 0 -13 69 -123 111 -178 82 -106 314 -316 440 -398
l27 -17 37 60 c98 163 321 401 515 550 527 407 1303 756 2162 971 670 168
1160 198 1548 95 52 -14 129 -43 172 -63 42 -20 74 -34 72 -31 -2 4 -45 38
-96 76 -597 448 -1290 717 -2037 788 -139 13 -537 18 -671 8z"/>
<path d="M8445 6558 c-261 -22 -554 -68 -1900 -298 -1434 -245 -2500 -379
-3455 -434 -52 -3 -167 -11 -255 -17 -88 -6 -295 -13 -460 -17 l-300 -7 -59
-29 c-62 -30 -109 -85 -134 -154 -10 -29 -14 -285 -19 -1231 l-6 -1194 344 7
c738 14 1396 58 2184 147 276 31 832 102 940 120 33 5 230 37 439 69 409 65
500 80 1331 225 1016 177 1329 220 1620 220 242 0 310 -13 371 -70 l34 -32 0
172 c0 162 -1 174 -22 205 -83 122 -368 130 -1038 30 -162 -25 -523 -85 -865
-145 -612 -108 -1757 -295 -1803 -295 -18 0 -17 369 1 375 6 2 188 32 402 65
344 53 657 106 1677 284 285 50 822 129 993 147 139 14 396 13 477 -1 75 -14
129 -40 158 -77 l21 -27 -3 186 c-3 183 -3 187 -28 213 -131 140 -484 120
-1750 -101 -987 -172 -1936 -326 -1952 -317 -8 4 -11 373 -4 373 38 0 960 151
1496 245 890 156 1313 222 1604 250 188 18 289 19 411 4 102 -12 163 -35 200
-75 l25 -27 0 169 c0 206 -7 225 -90 266 -182 91 -529 59 -1850 -172 -755
-132 -1727 -290 -1781 -290 -19 0 -19 8 -17 187 l3 187 85 13 c319 48 830 131
1015 163 1625 286 1972 336 2285 327 202 -5 265 -20 318 -73 l33 -33 -3 189
c-3 183 -4 189 -27 214 -13 14 -49 36 -80 48 -50 19 -77 22 -256 24 -110 1
-249 -2 -310 -8z m-3246 -699 l13 -42 56 6 57 6 -44 -39 -43 -40 16 -47 c9
-25 16 -48 16 -51 0 -2 -21 8 -46 23 l-46 27 -39 -38 c-21 -21 -41 -35 -44
-32 -3 2 2 24 10 48 20 58 21 57 -26 80 -23 12 -39 24 -36 26 3 3 27 8 53 12
47 7 48 8 63 55 8 26 18 47 21 47 4 0 12 -19 19 -41z m-550 -117 l54 5 -42
-39 -42 -40 15 -46 c9 -25 16 -47 16 -50 0 -2 -20 8 -45 23 l-46 26 -40 -35
c-21 -20 -41 -36 -44 -36 -2 0 2 21 10 48 19 61 20 57 -20 82 -19 12 -35 26
-35 30 0 5 21 10 47 12 44 3 47 5 60 43 24 72 25 72 41 21 l16 -48 55 4z
m-619 -69 l55 6 -44 -39 -43 -40 16 -47 c9 -25 16 -48 16 -50 0 -2 -18 8 -40
22 -22 14 -42 25 -46 25 -3 0 -24 -14 -47 -32 -40 -32 -40 -32 -35 -8 21 91
22 83 -23 112 l-42 26 56 7 c47 6 56 11 61 31 4 13 11 36 17 51 l12 28 15 -49
16 -48 56 5z m-687 -14 l13 -43 54 2 55 3 -43 -38 -43 -38 16 -44 c8 -24 15
-45 15 -48 0 -2 -20 8 -45 22 l-45 27 -37 -31 c-20 -17 -39 -29 -41 -26 -2 2
3 24 11 49 l15 44 -41 28 c-41 27 -42 28 -17 35 14 4 37 7 52 8 23 1 29 8 43
52 9 28 19 48 21 46 3 -2 10 -24 17 -48z m-553 -79 l54 -5 -40 -29 c-21 -16
-40 -30 -42 -31 -1 -1 5 -21 13 -45 22 -62 19 -65 -27 -31 l-41 30 -40 -29
c-22 -16 -42 -28 -44 -26 -2 1 4 23 12 47 17 48 18 47 -46 91 l-24 17 32 0
c59 1 79 16 93 67 l14 48 16 -50 17 -49 53 -5z m-685 31 l16 -50 52 -3 52 -3
-41 -30 -41 -30 13 -45 c7 -24 11 -46 9 -48 -3 -3 -21 8 -41 23 l-36 27 -44
-32 c-24 -17 -44 -30 -44 -28 0 2 7 25 15 52 8 27 14 50 13 51 -2 1 -21 15
-42 31 l-40 29 54 5 54 5 15 48 c8 26 16 47 17 47 1 0 10 -22 19 -49z m2785
-53 c14 -41 17 -43 50 -40 19 2 44 6 55 9 14 4 7 -9 -24 -40 l-44 -46 17 -42
c9 -23 15 -44 12 -46 -2 -2 -22 7 -45 21 l-41 26 -40 -36 c-22 -20 -43 -35
-45 -32 -3 3 2 24 10 48 8 23 15 46 15 50 0 4 -19 19 -42 33 l-43 25 40 7 c22
3 47 7 55 8 8 1 21 23 29 50 8 26 17 47 21 47 3 0 12 -19 20 -42z m-610 -91
c9 -27 12 -28 62 -22 l53 6 -43 -38 -43 -39 16 -43 c21 -62 20 -65 -22 -36
-47 32 -51 31 -93 -5 -19 -16 -38 -29 -42 -30 -4 0 -1 19 7 41 21 59 20 65
-26 91 -39 22 -40 23 -17 29 12 4 37 7 54 8 25 1 33 6 38 26 3 13 11 37 17 52
12 31 14 29 39 -40z m-620 -61 c10 -28 12 -28 63 -22 l52 6 -43 -38 -43 -38
16 -43 c22 -63 20 -65 -28 -32 l-43 29 -44 -36 c-48 -40 -45 -45 -25 44 6 28
3 33 -29 53 -20 13 -36 27 -36 32 0 5 22 9 49 9 44 0 50 3 55 25 3 13 11 37
17 52 12 31 14 29 39 -41z m-626 -23 l16 -48 52 3 53 3 -43 -38 -43 -38 16
-44 c8 -24 14 -46 12 -47 -2 -2 -20 8 -40 21 -20 14 -39 25 -43 25 -3 0 -24
-14 -45 -31 -43 -34 -46 -31 -25 29 l15 41 -39 28 c-22 16 -40 31 -40 36 0 4
22 7 49 7 l49 0 17 50 c9 28 18 50 20 50 2 0 10 -21 19 -47z m-621 -24 c13
-44 13 -44 66 -49 l53 -5 -40 -33 -41 -32 14 -41 c22 -61 19 -64 -27 -30 l-41
30 -40 -29 c-22 -16 -42 -28 -44 -26 -2 1 4 22 12 46 8 23 15 44 15 45 0 2
-18 17 -41 33 l-41 30 53 9 c52 8 53 9 68 55 8 27 16 46 18 44 2 -2 9 -23 16
-47z m2787 -20 l14 -41 55 6 56 6 -44 -39 -44 -39 17 -48 c9 -26 16 -49 16
-52 0 -2 -20 8 -45 23 l-46 26 -40 -36 c-23 -20 -43 -35 -45 -32 -2 2 3 23 11
47 8 23 15 46 15 50 0 4 -19 19 -42 33 l-43 25 40 7 c22 3 47 7 55 8 9 1 21
24 30 54 8 28 17 50 20 48 4 -2 13 -23 20 -46z m-550 -116 l55 6 -44 -39 -43
-40 16 -47 c9 -25 16 -48 16 -51 0 -2 -21 8 -46 23 l-46 27 -26 -24 c-62 -56
-63 -56 -46 3 16 52 16 54 -5 69 -71 50 -70 49 -21 50 57 0 64 6 80 55 20 62
23 63 39 11 l15 -48 56 5z m-620 -70 l55 6 -44 -39 -44 -38 17 -48 c9 -26 16
-49 16 -51 0 -2 -17 8 -37 22 -21 14 -42 25 -48 25 -6 0 -28 -14 -49 -32 -44
-36 -41 -41 -21 48 7 29 4 33 -35 55 -40 22 -41 24 -18 30 12 4 37 7 54 8 25
1 33 6 38 26 3 13 11 37 17 52 l12 28 15 -49 16 -48 56 5z m-680 -25 c9 -26
14 -28 62 -28 l53 0 -43 -38 -43 -37 16 -44 c8 -24 14 -46 12 -47 -2 -2 -20 8
-42 23 -25 17 -42 23 -51 17 -6 -5 -26 -19 -43 -32 -35 -26 -37 -22 -16 37
l14 41 -40 27 c-35 23 -38 28 -23 34 11 4 33 8 51 8 29 1 33 5 49 53 18 56 18
56 44 -14z m-559 -68 l53 -5 -24 -17 c-63 -43 -62 -41 -45 -88 22 -62 19 -65
-27 -31 l-41 30 -40 -29 c-22 -16 -42 -28 -44 -26 -2 1 4 22 12 46 8 23 15 44
15 46 0 2 -19 16 -42 31 l-41 28 53 10 c53 10 54 11 69 59 l15 48 16 -48 17
-49 54 -5z m-686 31 l16 -50 51 -3 52 -3 -41 -28 -42 -29 14 -46 c8 -25 12
-48 10 -50 -2 -2 -19 8 -38 22 -19 14 -37 26 -42 26 -4 0 -25 -14 -47 -31
l-39 -31 7 28 c4 16 11 39 15 52 5 13 9 25 9 26 0 2 -19 16 -42 32 l-43 29 55
5 54 5 15 48 c8 26 16 47 17 47 1 0 10 -22 19 -49z m2784 -52 l13 -41 55 4 56
5 -42 -39 -42 -40 15 -46 c9 -25 16 -47 16 -50 0 -2 -20 8 -45 23 l-46 26 -40
-36 c-23 -20 -43 -35 -45 -32 -2 2 3 23 11 47 20 57 21 56 -25 81 -22 12 -37
25 -34 28 2 3 26 8 51 11 46 5 47 6 62 53 8 26 18 47 21 47 4 0 12 -19 19 -41z
m-616 -71 l14 -43 54 3 54 3 -43 -38 -43 -38 16 -44 c8 -24 13 -46 10 -49 -2
-3 -22 7 -43 21 l-38 25 -40 -34 c-21 -18 -42 -33 -46 -34 -4 0 -1 19 7 41 21
59 20 65 -26 92 -38 23 -39 25 -17 31 13 3 37 6 55 6 29 0 32 3 44 50 7 28 16
50 20 50 4 0 14 -19 22 -42z m-552 -101 l54 3 -43 -38 -43 -38 16 -44 c8 -24
13 -45 10 -48 -2 -3 -22 7 -44 21 l-39 26 -42 -37 c-48 -40 -45 -45 -25 45 7
28 4 34 -29 55 -20 13 -36 26 -36 31 0 4 22 7 48 7 l48 0 19 58 18 57 17 -50
17 -50 54 2z m-681 -19 c9 -26 14 -28 62 -28 l53 -1 -42 -37 c-33 -29 -40 -41
-34 -57 5 -11 11 -33 15 -49 7 -28 7 -29 -16 -14 -68 44 -63 44 -107 9 -45
-36 -48 -33 -26 28 l14 42 -39 27 c-22 15 -39 30 -40 35 0 4 22 7 49 7 l49 0
18 52 c18 56 18 56 44 -14z m-627 -5 l14 -48 53 -5 52 -5 -40 -33 -41 -32 14
-41 c22 -60 19 -62 -26 -29 l-42 30 -40 -30 c-22 -16 -42 -28 -44 -26 -2 1 4
23 12 47 l16 44 -33 27 c-18 15 -36 28 -40 28 -5 0 -8 4 -8 9 0 6 23 11 52 13
l52 3 15 48 c8 26 16 47 17 47 2 0 10 -21 17 -47z m2789 -25 l12 -40 55 6 56
6 -44 -39 -44 -39 17 -48 c9 -26 16 -49 16 -52 0 -2 -20 8 -45 23 l-45 26 -42
-35 c-23 -20 -43 -34 -45 -32 -2 1 4 22 12 46 20 57 21 56 -25 81 -44 25 -38
38 15 39 43 0 52 9 65 63 14 54 24 53 42 -5z m-622 -74 l13 -46 56 5 56 6 -44
-39 -43 -40 16 -47 c9 -25 16 -48 16 -50 0 -2 -20 8 -45 22 l-45 27 -42 -36
c-23 -20 -43 -34 -45 -32 -2 1 4 22 12 46 8 23 15 46 15 51 0 5 -19 21 -42 36
-40 26 -41 28 -18 31 88 10 88 10 101 62 7 28 16 50 20 50 3 0 12 -21 19 -46z
m-610 -88 c10 -28 12 -28 63 -22 l52 6 -43 -38 -42 -38 14 -47 c8 -26 11 -47
7 -47 -4 0 -22 11 -41 24 l-35 24 -44 -36 c-49 -40 -46 -44 -26 44 6 29 4 34
-35 56 -39 24 -40 26 -18 32 13 3 37 6 54 6 25 0 33 5 38 25 3 13 11 37 17 52
12 31 14 29 39 -41z m-620 -48 c9 -26 14 -28 62 -28 l53 0 -42 -36 -42 -35 14
-46 c8 -26 13 -48 12 -50 -2 -1 -20 9 -40 22 -20 14 -39 25 -43 25 -3 0 -24
-14 -45 -31 -43 -34 -46 -31 -24 30 l14 41 -40 27 c-45 30 -38 43 23 43 35 0
37 2 54 52 18 56 18 56 44 -14z m-560 -68 l54 -5 -42 -29 c-23 -16 -42 -30
-42 -31 0 -1 7 -22 15 -45 21 -60 19 -64 -17 -37 -52 38 -54 38 -93 7 -21 -17
-39 -29 -41 -27 -2 2 3 24 11 50 l14 46 -41 30 -40 30 38 6 c22 3 46 7 54 8 8
1 21 24 29 51 l15 48 16 -48 17 -49 53 -5z m-685 31 l16 -50 51 -3 52 -3 -41
-28 -41 -28 14 -46 c8 -26 13 -48 11 -49 -2 -2 -20 8 -40 21 -20 14 -39 25
-43 25 -3 0 -24 -14 -45 -31 -43 -34 -46 -31 -24 31 8 23 15 44 15 45 0 1 -19
15 -42 31 l-43 29 55 5 54 5 15 48 c8 26 16 47 17 47 1 0 10 -22 19 -49z
m2787 -53 l12 -40 55 5 56 6 -44 -39 -43 -40 16 -47 c9 -25 16 -48 16 -51 0
-2 -20 8 -45 23 l-45 26 -42 -35 c-23 -20 -43 -34 -45 -32 -2 1 4 22 12 46 20
57 21 56 -25 81 -43 24 -38 39 12 39 45 0 56 10 69 60 14 56 23 56 41 -2z
m-551 -110 l54 3 -43 -38 -43 -38 16 -44 c8 -24 13 -46 11 -48 -2 -3 -22 7
-44 21 l-40 25 -40 -35 c-22 -19 -43 -34 -46 -34 -3 0 1 19 9 41 21 59 20 65
-27 93 -39 23 -40 25 -17 30 13 3 37 7 54 8 30 3 31 5 62 98 3 9 12 -6 23 -35
l17 -50 54 3z m-620 -60 l54 3 -43 -38 -43 -38 16 -44 c8 -24 13 -46 11 -48
-2 -3 -22 7 -44 21 l-39 25 -37 -31 c-20 -17 -40 -28 -43 -25 -3 3 1 26 10 50
l15 44 -39 24 c-22 13 -39 27 -39 31 0 5 22 8 48 8 l48 0 19 58 18 57 17 -50
17 -50 54 3z m-681 -20 c9 -26 14 -28 62 -28 l53 0 -42 -36 -42 -35 15 -41
c19 -55 18 -63 -8 -46 -68 44 -62 44 -109 7 -41 -32 -42 -33 -35 -9 22 77 20
87 -18 112 -20 12 -36 26 -36 31 0 4 22 7 49 7 l49 0 18 52 c18 56 18 56 44
-14z m-627 -5 l14 -48 53 -5 54 -5 -40 -29 c-21 -16 -40 -30 -42 -31 -1 -1 5
-21 13 -45 8 -24 13 -45 11 -47 -2 -3 -21 7 -42 21 -39 27 -40 26 -91 -12 -38
-28 -38 -28 -17 29 l15 44 -33 28 c-18 15 -36 27 -40 27 -4 0 -8 4 -8 9 0 6
23 11 52 13 l52 3 15 48 c8 26 16 47 17 47 2 0 10 -21 17 -47z m2787 -19 l13
-46 56 6 56 7 -44 -39 -44 -39 16 -48 c10 -27 17 -50 17 -52 0 -2 -20 8 -45
22 l-45 27 -42 -36 c-23 -20 -43 -34 -45 -32 -2 1 4 22 12 46 20 57 21 56 -25
83 -45 27 -43 37 9 37 49 0 58 8 71 63 7 26 16 47 20 47 4 0 13 -21 20 -46z
m-620 -80 l13 -46 56 6 56 6 -44 -39 -44 -39 17 -48 c9 -26 16 -49 16 -51 0
-2 -20 8 -45 22 l-45 27 -45 -37 c-25 -21 -45 -35 -45 -32 0 2 7 24 15 47 8
23 15 46 15 51 0 5 -19 21 -41 36 -23 15 -37 28 -33 29 5 1 30 5 56 9 46 6 47
7 59 55 7 28 16 50 20 50 3 0 12 -21 19 -46z m-610 -87 c10 -28 12 -29 63 -22
l52 6 -43 -38 -43 -38 16 -44 c8 -24 13 -46 10 -49 -2 -3 -22 7 -44 21 l-39
26 -40 -35 c-22 -19 -43 -34 -46 -34 -3 0 1 19 9 41 21 58 19 65 -20 89 -43
27 -37 40 20 40 37 0 44 3 49 25 3 13 11 37 17 52 12 31 14 29 39 -40z m-620
-49 c9 -26 14 -28 62 -28 l52 0 -42 -35 -41 -36 15 -41 c19 -55 18 -63 -8 -46
-68 44 -62 44 -109 7 -41 -32 -42 -33 -35 -9 22 76 20 86 -18 109 -20 13 -36
27 -36 32 0 5 22 9 49 9 l49 0 18 52 c18 56 18 56 44 -14z m-561 -63 c28 1 51
-2 51 -6 0 -3 -18 -19 -40 -34 -22 -15 -40 -29 -40 -30 0 -1 7 -22 15 -45 8
-24 13 -45 10 -48 -2 -3 -21 8 -41 23 l-36 27 -44 -32 -45 -32 7 29 c4 15 11
38 15 50 7 19 2 27 -31 50 -22 15 -40 31 -40 35 0 4 23 8 52 10 l52 3 15 49
15 48 17 -48 16 -49 52 0z m-684 24 l17 -51 49 4 c27 3 49 2 49 -2 0 -4 -18
-20 -39 -34 l-40 -28 15 -40 c19 -55 18 -63 -8 -46 -67 44 -63 43 -102 13 -20
-15 -39 -26 -41 -23 -3 3 2 24 10 48 8 23 15 44 15 45 0 1 -19 15 -42 31 l-42
29 54 5 54 5 15 48 c8 26 16 47 17 47 1 0 10 -23 19 -51z m2785 -45 l13 -46
56 6 56 6 -44 -39 -44 -39 17 -48 c9 -26 16 -49 16 -52 0 -2 -20 8 -45 23
l-45 26 -42 -35 c-23 -20 -43 -34 -45 -32 -2 1 4 22 12 46 20 57 21 56 -25 83
-45 26 -43 37 6 37 51 0 62 8 75 61 7 27 16 49 20 49 3 0 12 -21 19 -46z
m-549 -116 l54 3 -43 -38 -43 -38 16 -44 c8 -24 13 -46 11 -48 -2 -3 -22 7
-44 21 l-40 25 -40 -35 c-22 -19 -42 -34 -45 -34 -3 0 1 21 9 47 18 61 19 58
-21 83 -19 12 -35 26 -35 30 0 5 21 10 48 12 45 3 47 4 60 43 23 72 24 72 42
20 l17 -50 54 3z m-620 -60 l54 3 -43 -38 -43 -38 16 -44 c8 -24 13 -46 11
-49 -3 -2 -17 5 -33 15 -15 11 -33 23 -40 27 -7 3 -28 -8 -48 -25 -20 -17 -38
-29 -41 -26 -4 3 0 26 9 50 l15 43 -47 30 -46 29 55 5 55 5 19 54 20 55 16
-50 17 -49 54 3z m-681 -20 c9 -26 14 -28 62 -28 l53 0 -42 -36 -42 -35 15
-41 c20 -58 18 -62 -23 -33 -21 14 -42 25 -48 25 -6 0 -27 -14 -48 -31 -41
-34 -42 -33 -23 32 l14 45 -47 30 -46 29 57 3 57 3 17 52 c18 55 18 55 44 -15z
m-625 -8 l17 -50 51 0 c43 -1 49 -3 36 -13 -75 -58 -70 -51 -54 -97 8 -24 13
-45 10 -48 -2 -3 -21 8 -41 23 l-36 27 -44 -32 c-24 -17 -44 -30 -44 -28 0 2
7 25 15 52 16 54 18 49 -37 83 -16 10 -28 21 -28 25 0 4 23 8 52 10 l52 3 15
48 c8 26 16 47 17 47 1 0 10 -22 19 -50z m2785 -16 l13 -45 56 6 56 7 -44 -39
-44 -39 16 -47 c18 -53 13 -56 -37 -26 l-36 21 -45 -37 c-48 -40 -50 -40 -36
-3 25 68 23 75 -19 101 -43 25 -43 37 -1 37 55 0 67 10 80 61 7 27 16 49 21
49 4 0 13 -20 20 -46z m-620 -80 l13 -46 56 6 56 6 -44 -39 -44 -39 17 -48 c9
-26 15 -49 13 -50 -2 -2 -20 8 -40 21 -20 14 -39 25 -42 25 -4 0 -27 -16 -51
-36 -24 -20 -44 -34 -44 -31 0 2 7 24 15 47 21 59 20 62 -27 89 -24 13 -38 26
-33 27 6 1 31 5 57 9 46 6 47 7 59 55 7 28 16 50 20 50 3 0 12 -21 19 -46z
m-549 -106 l54 3 -43 -38 -43 -38 16 -44 c8 -24 13 -46 11 -48 -2 -3 -22 7
-43 20 l-40 25 -43 -34 c-23 -19 -44 -34 -46 -34 -2 0 3 19 11 41 21 58 19 65
-20 89 -19 12 -35 26 -35 31 0 5 22 9 48 9 l48 0 19 58 18 57 17 -50 17 -50
54 3z m-681 -30 c9 -26 14 -28 62 -28 44 -1 50 -3 37 -13 -75 -58 -70 -51 -54
-97 21 -61 19 -64 -22 -35 -21 14 -42 25 -48 25 -6 0 -28 -14 -49 -32 -38 -32
-39 -32 -32 -8 22 77 20 87 -18 112 -20 12 -36 26 -36 31 0 4 22 7 49 7 48 0
50 1 61 38 21 69 21 69 31 47 5 -11 13 -32 19 -47z m-627 -19 l13 -44 52 2
c29 1 52 -2 52 -7 0 -6 -3 -10 -7 -10 -5 -1 -23 -13 -41 -29 l-32 -28 15 -43
c8 -24 13 -45 11 -48 -3 -2 -20 8 -39 22 -19 14 -38 26 -43 26 -5 -1 -24 -14
-43 -30 -19 -16 -36 -28 -38 -26 -2 1 3 24 11 50 l14 47 -38 27 c-22 15 -39
30 -40 34 0 4 23 8 52 10 l52 3 14 48 c8 27 16 47 18 44 2 -2 10 -24 17 -48z
m-618 -18 l16 -50 50 6 c27 3 49 2 49 -3 0 -5 -18 -21 -40 -37 l-39 -27 16
-46 c8 -25 13 -47 11 -49 -2 -3 -20 6 -38 20 -42 31 -45 31 -87 -1 -19 -14
-36 -24 -39 -22 -2 3 3 24 11 48 8 23 15 44 15 45 0 1 -19 15 -42 31 l-42 29
54 5 54 5 14 48 c7 26 15 47 17 47 2 0 11 -22 20 -49z"/>
<path d="M8645 3594 c-259 -16 -620 -69 -1370 -199 -1777 -309 -2553 -418
-3605 -509 -508 -44 -1109 -74 -1605 -79 l-200 -2 -3 -184 -2 -184 357 6 c689
13 1275 51 2033 132 825 89 1469 185 2840 425 1110 194 1512 245 1758 221 144
-13 202 -32 242 -77 l30 -35 0 171 c0 193 -8 224 -62 258 -71 44 -238 67 -413
56z"/>
<path d="M8452 2835 c-263 -30 -568 -78 -1212 -190 -1801 -315 -2794 -450
-3895 -529 -369 -27 -1071 -56 -1372 -56 l-103 0 0 -184 0 -184 218 4 c745 14
1238 43 1957 115 855 85 1569 188 2900 420 1209 211 1538 255 1830 246 197 -6
260 -20 313 -73 l33 -33 -3 185 -3 186 -37 33 c-60 55 -118 68 -323 71 -107 2
-230 -3 -303 -11z"/>
<path d="M8605 2103 c-289 -23 -658 -78 -1400 -208 -2243 -395 -3561 -546
-4967 -572 l-368 -6 0 -77 c0 -140 57 -249 156 -301 l51 -26 599 -7 c857 -10
2313 10 3164 44 1838 74 2925 240 3202 488 75 68 78 79 78 319 0 249 -4 263
-90 305 -30 15 -84 32 -120 38 -60 9 -211 11 -305 3z"/>
</g>
</svg>
